<svg id="Group_916" data-name="Group 916" xmlns="http://www.w3.org/2000/svg" xmlns:xlink="http://www.w3.org/1999/xlink" width="696.18" height="536.372" viewBox="0 0 696.18 536.372">
  <defs>
    <clipPath id="clip-path">
      <rect id="Rectangle_2291" data-name="Rectangle 2291" width="696.18" height="536.372" fill="none"/>
    </clipPath>
  </defs>
  <g id="Group_915" data-name="Group 915" clip-path="url(#clip-path)">
    <path id="Path_270" data-name="Path 270" d="M461.614,672.413a6.736,6.736,0,0,0,2.425.227q10.277-.018,20.556-.041c.98.081,1.3.91,1.743,1.573,5.285,7.9,12.714,11.81,22.188,11.814q49.748.025,99.5.021c1.161,0,2.417-.321,3.437.593,3.106,7.227,3.344,14.481-.346,21.523-4.774,9.109-12.561,13.533-22.771,13.541q-71.148.059-142.3.018-52.889,0-105.776-.006c-11.355-.005-20.76-6.759-24.1-17.224a24.519,24.519,0,0,1,23.217-31.8q54.307-.044,108.614-.012a12.629,12.629,0,0,0,3.758-.285c1-.81,2.16-.323,3.217-.291,2.212.065,4.464-.462,6.636.35" transform="translate(-114.947 -245.16)" fill="#4cbf63"/>
    <path id="Path_271" data-name="Path 271" d="M808.948,524.1q42.013,0,84.025-.024c6.695-.013,12.727,1.748,17.738,6.21a23.51,23.51,0,0,1,8.194,16.446,23.919,23.919,0,0,1-6.027,18.107,24.3,24.3,0,0,1-14.758,8.041,48.967,48.967,0,0,1-8.1.352q-83.174,0-166.348,0a24.791,24.791,0,0,1-24.508-19.121c-3.334-13.884,6.619-28.077,20.871-29.718a49.356,49.356,0,0,1,5.646-.284q41.634-.013,83.268-.006" transform="translate(-254.875 -191.226)" fill="#f8dba1"/>
    <path id="Path_272" data-name="Path 272" d="M870.124,20.677a73.221,73.221,0,0,1,33.052,6.668c15.818,7.43,26.321,19.774,32.524,35.892,3.98,10.344,9.036,19.981,17.214,27.665,12.527,11.771,27.5,16.285,44.467,14.673.314-.03.627-.065.942-.08.186-.008.374.018.879.048-1.405,1.436-2.658,2.72-3.914,4q-13.375,13.629-26.753,27.254c-.306.311-.66.575-.992.861q-6.261,6.291-12.553,12.551c-3.574,3.552-7,7.251-10.571,10.8a2.673,2.673,0,0,1-3.51.634,79.406,79.406,0,0,1-24.863-19.089A85.994,85.994,0,0,1,904.256,125.5a84.226,84.226,0,0,1-7.19-18.844c-1.147-4.6-2.485-9.115-5.021-13.184a32.435,32.435,0,0,0-18.888-14.224A59.389,59.389,0,0,0,853.544,76.9a104.682,104.682,0,0,0-19.624,2.667,19.059,19.059,0,0,1-2.042.389c-.666.083-1.3.092-1.416-.8a2.774,2.774,0,0,1,.65-1.541q12.324-18.373,24.71-36.706c3.788-5.581,7.46-11.241,11.28-16.8.853-1.242,1.384-2.849,3.021-3.431" transform="translate(-303.02 -7.538)" fill="#00d68c"/>
    <path id="Path_273" data-name="Path 273" d="M459.721,366.751c7.106,2.356,14.2,4.748,21.321,7.063q38.619,12.558,77.259,25.052a3.533,3.533,0,0,1,2.307,2c2.962,6.307,3.869,12.717,1.112,19.35-5.226,12.57-11.459,24.661-17.6,36.794-4.944,9.772-10.011,19.482-15.024,29.219-.241,1.039-1.141,1.261-1.963,1.566q-20.582,7.633-41.8,13.261c-3.047.8-6.1,1.606-9.172,2.29a2.975,2.975,0,0,1-2.206.08c-.523-.968.145-1.708.561-2.423,5.25-9.045,10.488-18.1,15.555-27.248,8.147-14.713,16.474-29.338,22.973-44.894a33.258,33.258,0,0,0,1.616-4.836c.49-1.984.233-2.426-1.778-2.951-5.064-1.324-10.189-2.386-15.3-3.5q-26.332-5.728-52.712-11.232c-.663-.138-1.4-.141-1.876-.767a3.153,3.153,0,0,1-.159-2.03c1.872-11.282,3.754-22.563,5.968-33.785a2.628,2.628,0,0,1,.255-.706,2.293,2.293,0,0,1,1.774-.883,29.848,29.848,0,0,0,7.83-1.523,1.016,1.016,0,0,1,1.057.1" transform="translate(-161.55 -133.748)" fill="#ec7615"/>
    <path id="Path_274" data-name="Path 274" d="M394.784,370.077c-.071,3.459-1.173,6.746-1.708,10.13-1.236,7.812-2.639,15.6-3.979,23.393a10.308,10.308,0,0,0-.378,2.963c.3,2.1-.287,4.128-.616,6.164-2.716,16.786-5.2,33.607-7.873,50.4a14.964,14.964,0,0,1-5.849,10.194Q356.347,487.546,338.1,501.5a50.233,50.233,0,0,1-6.382,4.7,5.9,5.9,0,0,1-3.333-.335,117.783,117.783,0,0,1-33.569-15.579c-.627-.432-1.541-.7-1.418-1.76q24.367-16.724,48.745-33.431a2.276,2.276,0,0,0,1.148-2.305q-1.479-22.984-2.88-45.974c-.478-7.788-.915-15.58-1.38-23.37a26.516,26.516,0,0,1,.911-7.277c.466-.868,1.375-1.061,2.178-1.381,4.8-1.915,9.872-2.491,14.953-2.995,7.327-.727,14.686-.965,22.028-1.459,4.393-.3,8.794-.433,13.185-.8a2.921,2.921,0,0,1,2.5.546" transform="translate(-107.052 -134.818)" fill="#fe9d01"/>
    <path id="Path_275" data-name="Path 275" d="M420.656,309.612c-7.868.434-15.738.833-23.6,1.312-6.607.4-13.216.768-19.785,1.648a49,49,0,0,0-11.454,3.128c-1.8-.349-1.587-1.686-1.409-2.95a40.983,40.983,0,0,1,2.4-8.892c3.87-10.111,6.046-20.725,9.235-31.038.5-1.619,1.012-3.235,1.519-4.852a3.733,3.733,0,0,1,1.42-3.085c4.5-4.143,9.367-7.837,14.1-11.7,8.922-7.294,18.018-14.374,26.867-21.757a24.527,24.527,0,0,0,4.958-5.667,12.5,12.5,0,0,0,1.521-9.284c-.643-3.538-3.794-5.754-7.76-5.911-.995-.039-2.284.617-2.938-.8a85.788,85.788,0,0,1,24.649-5.983c.688.408.7,1.142.871,1.8,1.482,5.637,3.875,10.764,8.312,14.741,4.629,3.037,5.771,7.776,6.051,12.807a129.218,129.218,0,0,1-.369,15.289,12.052,12.052,0,0,1-1.226,4.115,66.076,66.076,0,0,1-5.17,17.667c-4.005,9.559-8.405,18.954-11.578,28.85a14.75,14.75,0,0,1-6.169,8.311c-3.312,1.531-6.927,1.657-10.439,2.255" transform="translate(-132.923 -74.354)" fill="#3e4557"/>
    <path id="Path_276" data-name="Path 276" d="M502.7,240.668a96.605,96.605,0,0,0,1.08-18.73,20.975,20.975,0,0,0-2.353-9.579c-.887-1.7-2.664-2.444-3.71-3.926,0-.539.333-.575.746-.486,7.04,2.353,13.722,5.7,21.008,7.39,5.4,1.25,10.789.758,16.171.208a230.4,230.4,0,0,0,54.873-12.721c20.334-7.332,39.365-17.109,56.533-30.342,2.244-1.73,2.238-1.71,3.627.72.841,1.47,1.735,2.911,2.605,4.365a2,2,0,0,1,.8.771c3.082,5.365,6.318,10.643,9.242,16.1-.177,1.738-1.488,2.866-2.328,4.24-1.18,1.933-2.618,3.7-3.848,5.6-.332.514-.626,1.122-1.369,1.183s-1.226.61-1.773,1.017a195.728,195.728,0,0,1-86.3,36.463,165.205,165.205,0,0,1-31.229,2.259,120.955,120.955,0,0,1-31.807-4.991c-.744-.224-1.569-.795-1.97.458" transform="translate(-181.607 -62.493)" fill="#4a5779"/>
    <path id="Path_277" data-name="Path 277" d="M387.426,213.2c1.75.906,3.681.1,5.526.664a8.424,8.424,0,0,1,5.884,7.452c.513,6.18-2.718,10.421-7.041,14.034-6.344,5.3-12.838,10.427-19.273,15.621-5.7,4.6-11.433,9.174-17.11,13.809-1.748,1.428-3.32,3.069-5.054,4.515-.713.594-.556,1.506-1.094,2.114-.324-1.439-.8-.147-.963.018a39.224,39.224,0,0,0-6.739,9.3c-3.7,7.191-6.157,14.885-9.019,22.412a337.787,337.787,0,0,1-18.5,41.353c-.8,1.482-1.347,1.544-2.588.575-1.681-1.311-3.508-2.435-5.273-3.64-1.415-.152-2.269-1.271-3.341-1.988-4.009-2.682-7.87-5.578-11.81-8.359-.408-.288-.846-.553-.979-1.089-.233-.21-.45-.439-.7-.625-3.22-2.4-3.208-2.388-1.4-6.053,8.961-18.121,18.371-36.027,26.195-54.693,6.333-15.106,17.346-26.074,30.867-34.831a195.627,195.627,0,0,1,38.705-19.2c1.235-.457,2.466-.927,3.7-1.39" transform="translate(-104.624 -77.791)" fill="#4a5779"/>
    <path id="Path_278" data-name="Path 278" d="M850.189,342.4a35.413,35.413,0,1,1,35.427-35.258A35.329,35.329,0,0,1,850.189,342.4" transform="translate(-297.289 -99.091)" fill="#fe9d01"/>
    <path id="Path_279" data-name="Path 279" d="M178.741,611.913c-.17-1.178-1.8-2.061-1.231-3.141.5-.943,1.844-1.444,2.829-2.121q33.8-23.238,67.606-46.47c1.242-.654,2.032.318,2.866.88a116.883,116.883,0,0,0,23.5,12.363c3.055,1.171,6.118,2.317,9.275,3.207.81.229,1.95.14,2.194,1.363q-25.646,19.5-51.3,38.991c-11.644,8.83-23.339,17.591-34.971,26.435-1.2.914-1.769.891-2.493-.475-1.088-2.051-2.375-4-3.577-5.987-1.648-1.279-2.317-3.239-3.313-4.942-3.518-6.016-7.086-12-10.566-18.042a3.637,3.637,0,0,1-.826-2.06" transform="translate(-64.726 -204.32)" fill="#fe9d01"/>
    <path id="Path_280" data-name="Path 280" d="M824.135,111.055c.074.624.391.58.927.476,3.99-.777,7.966-1.724,12-2.183,5.461-.622,10.913-1.318,16.485-.722a73.448,73.448,0,0,1,12.216,1.947c12.706,3.578,20.785,11.78,24.182,24.48,1.869,6.989,3.912,13.9,7.167,20.384a87.572,87.572,0,0,0,12.346,18.4,79.709,79.709,0,0,0,24.989,19.379,2.239,2.239,0,0,0,3.087-.478q10.767-10.89,21.649-21.666c.525-.523.938-1.209,1.739-1.4-4.194,4.354-8.371,8.724-12.585,13.059-7.557,7.774-15.168,15.5-22.676,23.318-1.257,1.31-2.226,1.524-3.851.679-17.469-9.087-29.581-22.981-37.1-41.036a110.4,110.4,0,0,1-4.908-16.055c-3.608-14.575-13.293-22.535-27.8-24.967-13.042-2.187-25.726.02-38.272,3.5-.422.117-.854.2-1.282.3-.406-.718.161-1.191.478-1.679,3.28-5.055,6.727-10,10.109-14.986.25-.369.4-.994,1.1-.749" transform="translate(-296.396 -39.553)" fill="#4cbf63"/>
    <path id="Path_281" data-name="Path 281" d="M477.156,443.139c-.565-1.207-1.461-.908-2.388-.457-3.341,1.626-6.694,3.22-10.028,4.865-11.292,5.564-22.674,10.956-34.08,16.278-17.453,8.136-35.078,15.872-53.039,22.813-2.769,1.073-5.43,2.509-8.441,2.877a4.939,4.939,0,0,1-2.14,1.124c-10.048,3.665-20.184,7.075-30.454,10.067-7.482,2.172-14.982,4.293-22.623,5.869a4.228,4.228,0,0,0-2.769.127c-17.987,3.773-36.068,6.313-54.538,5.43a155.347,155.347,0,0,1-27.678-3.646,9.271,9.271,0,0,0-2.794-.349,6.359,6.359,0,0,1-2.039-.26A117.85,117.85,0,0,1,196.9,496.622c-3.087-1.772-6.275-3.43-8.923-5.888a2.593,2.593,0,0,1-1.327-.667,106.02,106.02,0,0,1-11.947-9.806,239.362,239.362,0,0,1-18.33-19.314,229.86,229.86,0,0,1-16.335-22.159c-.54-.826-.464-1.277.368-1.994a46.867,46.867,0,0,0,11.083-13.249,40.184,40.184,0,0,0,4.173-25.779c-1.035-6.707-3.4-12.8-8.5-17.682-8.25-7.9-20.794-5.106-24.744,5.6-2.134,5.78-1.715,11.623-.584,17.466,2.21,11.5,6.872,22.051,12.747,32.1.762,1.315.591,2.039-.61,2.725-1.855,1.061-3.665,2.217-5.583,3.163a65.074,65.074,0,0,1-31.864,6.885,112.781,112.781,0,0,1-16.1-1.7,135.2,135.2,0,0,1-44.592-16.278,84.4,84.4,0,0,1-24.579-21.2c-1.378-1.791-2.528-3.76-3.754-5.659-.527-.813-.984-1.747-2.191-1.1-1.258.673-.883,1.62-.324,2.56.318.54.622,1.092.953,1.626a70.715,70.715,0,0,0,15.713,17.472c10.479,8.6,22.369,14.716,35.09,19.257a134.689,134.689,0,0,0,35.039,7.672,74.717,74.717,0,0,0,18.977-.686,64.18,64.18,0,0,0,25.1-9.876c.9-.61,1.448-.387,1.982.476a190.276,190.276,0,0,0,19.117,25.468,185.136,185.136,0,0,0,24.471,23.792c1.181.927,2.852,1.4,3.423,3.042.851-.114,1.4.476,2.013.9A115.471,115.471,0,0,0,211,506.549c3.862,1.473,7.793,2.775,11.693,4.16.61.108,1.238.171,1.842.33a136.3,136.3,0,0,0,29.508,4.522,191.824,191.824,0,0,0,30.9-.984c7.787-.953,15.522-2.1,23.207-3.671,1-.2,2.1-1.08,3.188-.146.8.133,1.461-.337,2.185-.5a446.759,446.759,0,0,0,48.815-14.277,14.9,14.9,0,0,0,4.306-1.893c.572-.254,1.131-.553,1.715-.768,26.573-9.844,52.416-21.384,77.961-33.617,9.94-4.757,19.841-9.59,29.768-14.379.978-.47,1.594-1.061,1.067-2.185m-340.087-9.374c-5.926-10.245-10.657-20.972-12.639-32.715-.8-4.719-1.073-9.5.635-14.157a12.4,12.4,0,0,1,11.667-8.523c4.643.324,8.257,3.01,11.07,6.859,3.531,4.821,4.808,10.41,5.316,16.259a36.544,36.544,0,0,1-3.792,19.879c-2.49,4.986-6.186,8.987-10.225,12.74-.889.826-1.429.7-2.032-.343" transform="translate(-1.629 -137.033)" fill="#f8dba2"/>
    <path id="Path_282" data-name="Path 282" d="M479.59,578.851c.55-.833,1.489-.882,2.317-1.067a434.315,434.315,0,0,0,50.816-15.036,5.03,5.03,0,0,1,2.173-.564c-6.2,11.731-12.61,23.36-18.483,35.252-2.006,4.062-4.3,6.239-8.859,5.547a5.477,5.477,0,0,1-2.415.286c-9.188.013-18.376-.018-27.564.017a3.086,3.086,0,0,1-1.832-.289c-3.3-.447-6.64.062-10.175-.3l14.022-23.844" transform="translate(-169.877 -205.127)" fill="#ec7615"/>
    <path id="Path_283" data-name="Path 283" d="M757.046,398.245a21.572,21.572,0,0,1-.024-43.144,21.572,21.572,0,1,1,.024,43.144" transform="translate(-268.358 -129.57)" fill="#4261fe"/>
    <path id="Path_284" data-name="Path 284" d="M804.584,634.873c-2.655-12.531-12.887-20.819-25.888-20.832q-46.176-.048-92.353-.013-41.26,0-82.515.019a25.742,25.742,0,0,0-26.122,26.51,29.219,29.219,0,0,0,2.731,10.924,5.182,5.182,0,0,1,.47.591c5.284,8.974,13.172,13.363,23.557,13.363q50.2-.01,100.387,0c.819,0,1.632.032,2.452.051.819-.025,1.639-.063,2.458-.063q34.258,0,68.51,0a38.472,38.472,0,0,0,4.522-.26c14.347-1.683,24.782-16.17,21.791-30.289m-24.23,27.971c-24.592.2-49.184.051-73.776.051-.311,0-.629-.057-.94-.083a5.194,5.194,0,0,1-1.709-1.467c-5.075-6.345-11.775-9.279-19.8-9.279q-48.5-.038-97.008-.019a6.538,6.538,0,0,1-3.512-.464c-4.6-6.332-4.6-16.894.127-24.122a22.87,22.87,0,0,1,20.178-10.93q7.85-.019,15.7-.006,79.168,0,158.341-.019c10.187-.006,17.809,4.211,22.35,13.318,7.329,14.684-3.595,32.88-19.949,33.02" transform="translate(-210.791 -224.043)" fill="#4364fd"/>
    <path id="Path_285" data-name="Path 285" d="M185.174,815q-43.81,0-87.62-.008a25.678,25.678,0,1,1-.427-51.353q37.943-.057,75.887-.011,49.96,0,99.921,0a25.668,25.668,0,0,1,25.488,21.053c2.922,14.931-8.516,29.518-23.738,30.265-1.007.05-2.018.048-3.026.048q-43.242,0-86.485,0" transform="translate(-26.095 -278.629)" fill="#fe9e03"/>
    <path id="Path_286" data-name="Path 286" d="M506.41,157.657c.107-.749.179-1.389-.978-1.1a1.409,1.409,0,0,1-1.757-1.051c-.924-2.756-1.308-5.483.6-8.035.8.074.9.78,1.185,1.311.95,1.759,2.19,1.923,3.518.443a9.941,9.941,0,0,0,1.5-2.606,4.2,4.2,0,0,1,4.342-2.671,29.59,29.59,0,0,0,6.57-.457,15.178,15.178,0,0,0,7.051-3.4c1.854-1.54,2.761-1.633,4.741-.311,1.63,1.087,3.447,2.09,3.933,4.267-1.128,2.584-.693,5.273-.594,7.956.275,7.469,1.937,14.807,2.072,22.286a15.838,15.838,0,0,1-.589,4.274c-.421,1.618-1.188,1.857-2.608.963-2.591-1.63-2.6-1.634-3.9,1.082a32.984,32.984,0,0,1-7.1,9.685c-2,1.9-3.109,1.931-5.17.05a21.543,21.543,0,0,1-3.959-4.782c-.23-.38-.4-.784-.842-.976-1.857-1.618-2.838-3.814-3.855-5.964-2.408-5.088-3.181-10.581-3.889-16.088a17.89,17.89,0,0,1-.264-4.879" transform="translate(-183.503 -50.668)" fill="#fcb3b0"/>
    <path id="Path_287" data-name="Path 287" d="M779.164,71.5,767.477,88.915l-4.691,6.854c-.237,1.63-1.644,2.6-2.271,4.008-6.032,9.346-12.441,18.441-18.578,27.715a6.968,6.968,0,0,1-1.413,1.5c-4.29,6.293-8.605,12.569-12.865,18.883q-17.068,25.3-34.1,50.618c-1.232,1.828-2.685,2.215-3.844,1.023-1.137-1.17-.609-2.271.149-3.393q7.933-11.742,15.839-23.5,9.957-14.82,19.893-29.656l7.314-10.946a3.188,3.188,0,0,1,.64-1.55c6.979-10.477,14.107-20.853,21.05-31.354a9.145,9.145,0,0,1,1.782-1.938c4.634-6.819,9.291-13.624,13.9-20.461Q795.352,39.517,820.4,2.3c1.524-2.263,2.527-2.752,3.837-1.917,1.378.878,1.3,2.11-.216,4.4-1.841,2.777-3.661,5.569-5.49,8.354-4.462,6.547-8.948,13.079-13.382,19.646Q792.311,51.8,779.524,70.845c-.138.206-.241.438-.361.657" transform="translate(-251.425 0)" fill="#21243d"/>
    <path id="Path_288" data-name="Path 288" d="M478.511,626.334a14.683,14.683,0,0,1,1.674-.188q14.426-.017,28.85,0a9.346,9.346,0,0,1,1.286.175c-.729,2.534-1.391,5.089-2.218,7.59a2.676,2.676,0,0,0,.65,3,88.9,88.9,0,0,1,10.122,13.117,18.8,18.8,0,0,1,1.594,3.4c.369,1.045.213,2.023-1.157,2.286a48.776,48.776,0,0,1-9.856-.059,157.983,157.983,0,0,1-30.837-6.053c-5.818-1.832-6.168-2.573-4.8-8.568a131.631,131.631,0,0,1,4.688-14.7" transform="translate(-172.645 -228.466)" fill="#21243c"/>
    <path id="Path_289" data-name="Path 289" d="M167.756,641.759c3.343,5.618,6.7,11.227,10.022,16.858,1.6,2.707,3.124,5.456,4.683,8.187-3.908,2.027-7.8,4.088-11.735,6.06a2.243,2.243,0,0,0-1.426,2.307,88.082,88.082,0,0,1-1.593,17.64,10.058,10.058,0,0,1-1.157,3.179c-.589.969-1.315,1.105-2.152.3a16.184,16.184,0,0,1-2.777-3.8,175.433,175.433,0,0,1-13.93-32.748c-.994-3.113-.151-5.289,2.343-7.222a114.233,114.233,0,0,1,17.721-10.761" transform="translate(-53.742 -234.166)" fill="#21243c"/>
    <path id="Path_290" data-name="Path 290" d="M536.486,132.628a16.6,16.6,0,0,0-4.93-4.314,2.378,2.378,0,0,0-3.111.327c-3.2,3.361-7.328,4.188-11.709,4.342a19.41,19.41,0,0,1-2.267,0,4.059,4.059,0,0,0-4.409,2.8,8.31,8.31,0,0,1-1.359,2.468c-1.661,1.832-3.362,1.568-4.362-.692-.225-.508-.463-1.01-.694-1.515-.658-2.034-1.732-3.917-2.183-6.027-.546-2.548-.379-4.892,1.815-6.709a7.257,7.257,0,0,0,2.194-4.084c1.317-5.2,4.626-7.878,9.933-8.14a3.058,3.058,0,0,1,2.476,1.107c1.433,1.471,2.347,1.477,3.82,0,.843-.843,1.52-1.848,2.317-2.741,1.923-2.156,3.876-2.532,6.172-.856a97.435,97.435,0,0,0,10.725,7.057,4.353,4.353,0,0,1,1.9,1.811c2.069,4.263,3.432,8.718,2.511,13.5-.932,4.832-3.942,5.8-7.693,2.626-.38-.322-.762-.641-1.143-.962" transform="translate(-182.878 -39.244)" fill="#21243d"/>
    <path id="Path_291" data-name="Path 291" d="M282.223,397.084q8.225,5.491,16.129,11.437a194.622,194.622,0,0,1-13.511,22.239c-1.422,1.989-2.452,4.274-4.355,5.9a10.974,10.974,0,0,1-1.658,1.226,2.664,2.664,0,0,1-3.189-.07c-.905-.732-.534-1.7-.26-2.61a4.414,4.414,0,0,0,.079-.781c-.91.326-1.313,1.1-1.959,1.581-.719.532-1.468,1.182-2.382.674-1.033-.574-.448-1.54-.3-2.583-.771.408-1.438,1.254-2.3.54-1.11-.922-.374-2.079-.239-3.152a.92.92,0,0,0-.795.563,1.284,1.284,0,0,1-1.638.564c-.671-.257-.58-.883-.562-1.455a17.511,17.511,0,0,1,1.812-6.684c1.529-3.394,3.972-6.26,5.635-9.8-1.613.094-3.128.556-4.613-.1-1.191-.523-2.314-1.059-2.478-2.541a2.665,2.665,0,0,1,1.831-2.805c6.044-2.7,10.361-7.467,14.754-12.153" transform="translate(-96.791 -144.889)" fill="#fe9393"/>
    <path id="Path_292" data-name="Path 292" d="M775.937,152.434q-7.217,10.812-14.441,21.62c-2.977,4.429-6.018,8.816-9.031,13.222-3.435-5.555-6.77-11.169-9.814-16.949,5.778-4.7,11.331-9.6,14.688-16.474.637-1.306,1.561-2.689,3.259-2.379,1.82.333,2.615,1.867,2.878,3.58a9.764,9.764,0,0,1-.291,4.081c4.545-1.936,8.088-5.4,12.751-6.7" transform="translate(-270.98 -55.254)" fill="#fe9393"/>
    <path id="Path_293" data-name="Path 293" d="M499.541,168.455a28.011,28.011,0,0,1,1.076,6.76c.791,7.085,2.6,13.749,6.805,19.625a1.541,1.541,0,0,1,.127.547c-3.744,4.21-8.667,6.977-12.933,10.549-.382.32-.751.657-1.128.986l-.747.486c-3.359-2.6-5.188-6.239-6.784-10.017a29.558,29.558,0,0,1-1.874-6.5c3.864-3.853,6.542-8.564,9.472-13.092,2.008-3.1,3.99-6.225,5.985-9.339" transform="translate(-176.633 -61.466)" fill="#fe9393"/>
    <path id="Path_294" data-name="Path 294" d="M770.091,185.873q5.823-8.769,11.652-17.535c2.684-4.014,5.411-8,8.119-12a.506.506,0,0,1,.746-.036,13.443,13.443,0,0,1,1.657-.329c.854-.067,1.8-.364,2.441.525s-.193,1.505-.5,2.274c.873.085,1.938-.718,2.546.343s-.142,1.907-.776,2.7c-.5.626-1.016,1.24-1.668,2.033a5.875,5.875,0,0,0,.93-.074c.977-.274,2.013-.678,2.762.348a3.028,3.028,0,0,1,.1,3.23,7.956,7.956,0,0,1-2.86,3.218,257.764,257.764,0,0,1-24.266,15,5.72,5.72,0,0,1-.885.3" transform="translate(-280.992 -56.876)" fill="#fe9393"/>
    <path id="Path_295" data-name="Path 295" d="M124.578,266.059c-.045.6-.591.755-1.515.424a18.944,18.944,0,0,1-8.375-5.62c-1.536-1.834-2.9-3.821-4.542-5.556-5.322-5.637-11.835-7.358-19.3-5.467-2.682.679-5.193,2.009-7.953,2.381-7.893,1.064-14.544-1.307-19.76-7.411-.736-.861-1.4-1.785-2.089-2.686-5.877-7.7-13.8-10.128-22.937-6.984-3.468,1.193-6.918,2.361-10.68,2.032-6.117-.534-11.311-2.859-15.228-7.711-.713-.882-1.423-1.768-2.083-2.69a18.221,18.221,0,0,0-9.129-7.024c-.824-.275-1.17-.64-.889-1.5.321-.979,1-.543,1.538-.356A19.4,19.4,0,0,1,10.5,224.1c.951,1.174,1.849,2.392,2.781,3.583a18.953,18.953,0,0,0,21.471,6.52c1.318-.428,2.623-.9,3.947-1.3a20.957,20.957,0,0,1,23.2,7.145c1.063,1.327,2.015,2.754,3.171,3.992,5.484,5.869,12.127,7.835,19.908,5.672,2.965-.825,5.773-2.239,8.9-2.46,7.317-.518,13.52,1.761,18.34,7.411.9,1.054,1.72,2.175,2.556,3.28a18.4,18.4,0,0,0,8.749,6.643c.5.171,1.2.182,1.059,1.472" transform="translate(0 -79.411)" fill="#4363fe"/>
    <path id="Path_296" data-name="Path 296" d="M191.433,328.6c-.061.861-.365,1.261-1.444.885a19.635,19.635,0,0,1-8.789-6c-.889-1.062-1.768-2.142-2.55-3.284a19.335,19.335,0,0,0-22.676-6.854c-5.546,2.28-11.164,2.936-16.951.828a20.336,20.336,0,0,1-9.127-6.481c-.906-1.131-1.771-2.3-2.666-3.435a18.957,18.957,0,0,0-20.791-6.649c-1.329.391-2.622.9-3.938,1.337-9.115,3.049-18.058.427-23.974-7.227-3.006-3.888-6.041-7.633-10.993-9.118-.737-.221-.817-.634-.622-1.279.221-.727.607-.768,1.283-.546A19.425,19.425,0,0,1,77.27,287c1,1.214,1.934,2.487,2.908,3.726a19.065,19.065,0,0,0,21.5,6.44c2.569-.856,5.083-1.989,7.8-2.208,7.586-.613,14.044,1.689,18.959,7.7.957,1.171,1.847,2.4,2.791,3.576a19.019,19.019,0,0,0,21.242,6.252c3.1-1.041,6.157-2.374,9.487-2.393,7.075-.043,13.138,2.355,17.524,8.072,3.1,4.044,6.18,8.006,11.345,9.557.386.116.7.308.606.875" transform="translate(-24.382 -102.406)" fill="#4363fe"/>
    <path id="Path_297" data-name="Path 297" d="M903.17,448.653a7.24,7.24,0,1,1-7.214-7.218,7.235,7.235,0,0,1,7.214,7.218" transform="translate(-324.267 -161.072)" fill="#fd5a24"/>
    <path id="Path_298" data-name="Path 298" d="M594.174,336.794a7.239,7.239,0,1,1,14.476-.159A7.261,7.261,0,0,1,601.376,344a7.187,7.187,0,0,1-7.2-7.211" transform="translate(-216.803 -120.206)" fill="#fd5a24"/>
    <path id="Path_299" data-name="Path 299" d="M678.812,117.372a7.24,7.24,0,0,1,.041-14.481,7.24,7.24,0,1,1-.041,14.481" transform="translate(-245.062 -37.543)" fill="#18e49e"/>
    <path id="Path_300" data-name="Path 300" d="M139.816,177.889a7.242,7.242,0,1,1,.153,14.484,7.243,7.243,0,1,1-.153-14.484" transform="translate(-48.378 -64.908)" fill="#fd5a24"/>
    <path id="Path_301" data-name="Path 301" d="M139.9,560.519a7.228,7.228,0,1,1-.019-14.455,7.228,7.228,0,1,1,.019,14.455" transform="translate(-48.376 -199.249)" fill="#18e49e"/>
    <path id="Path_302" data-name="Path 302" d="M307.83,199.43a7.119,7.119,0,0,1-7.3,7.271,7.233,7.233,0,1,1,.134-14.464,7.072,7.072,0,0,1,7.165,7.193" transform="translate(-107.027 -70.144)" fill="#18e49e"/>
    <path id="Path_303" data-name="Path 303" d="M398.649,117.371a7.241,7.241,0,0,1,.006-14.481,7.241,7.241,0,1,1-.006,14.481" transform="translate(-142.826 -37.543)" fill="#fd5a24"/>
    <path id="Path_304" data-name="Path 304" d="M801.967,154.45l-.746.036,2.492-3.7c.991,1.97-.458,2.778-1.745,3.662" transform="translate(-292.351 -55.02)" fill="#ee9294"/>
    <path id="Path_305" data-name="Path 305" d="M859.969,329.566c3.024-4.577,5.932-8.976,8.838-13.376,1.768-2.677,3.543-5.35,5.3-8.037.525-.805,1.142-1.516,2.125-.855.911.613.46,1.412-.019,2.138-5.3,8.032-10.6,16.067-16.021,24.3-2.418-2.978-4.746-5.845-7.074-8.713q-2.379-2.93-4.753-5.865c-.548-.68-1.339-1.442-.427-2.273.994-.906,1.712-.069,2.327.69,3.169,3.908,6.333,7.823,9.709,12" transform="translate(-309.243 -112.032)" fill="#fefdfc"/>
    <path id="Path_306" data-name="Path 306" d="M773.3,377.248a2.713,2.713,0,0,1-.676,1.526c-2.967,4.52-5.981,9.009-8.9,13.559-.738,1.15-1.147.936-1.86.029-2.136-2.718-4.338-5.386-6.509-8.077-.519-.644-1.169-1.364-.3-2.116.889-.767,1.606-.215,2.216.549,1.452,1.817,2.98,3.577,4.359,5.449.854,1.16,1.292.914,1.97-.141,2.38-3.7,4.833-7.356,7.25-11.034.4-.61.824-1.149,1.665-.894a1.076,1.076,0,0,1,.783,1.151" transform="translate(-275.35 -137.207)" fill="#fcfcfe"/>
    <path id="Path_307" data-name="Path 307" d="M587.005,673.126c.629-.02,1.259-.058,1.889-.058,33.168,0,66.336-.054,99.5.032,8.8.023,15.764,3.826,20.636,11.252-.567.021-1.133.06-1.7.06q-50.329,0-100.659,0c-7.974,0-14.142-3.526-18.857-9.8a11.444,11.444,0,0,1-.812-1.484" transform="translate(-214.187 -245.583)" fill="#17e49d"/>
    <path id="Path_308" data-name="Path 308" d="M186.6,767.537q43.716,0,87.435,0a23.233,23.233,0,0,1,23.693,24.436c-.379,11.066-9.844,20.975-20.892,21.84-1.569.123-3.147.182-4.721.182q-86.111.013-172.221.021c-7.324,0-13.7-2.249-18.551-7.816-6.377-7.317-7.939-15.732-4.025-24.629,3.955-8.994,11.183-13.938,21.09-13.985,29.4-.14,58.794-.05,88.192-.051" transform="translate(-27.434 -280.05)" fill="#fefefe"/>
    <path id="Path_309" data-name="Path 309" d="M529.779,194.24c.862,4.715,4.02,5.945,8.7,5.388a5.778,5.778,0,0,1-6.523-.253c-1.69-1.249-2.689-2.861-2.18-5.136" transform="translate(-193.258 -70.875)" fill="#a22d4d"/>
    <path id="Path_310" data-name="Path 310" d="M544.944,158.144c-.039.619-.319,1.105-1.009,1.05a1.435,1.435,0,0,1-1.449-1.432,1.026,1.026,0,0,1,1.129-1.185c1.029,0,1.092.845,1.329,1.567" transform="translate(-197.943 -57.132)" fill="#474344"/>
    <path id="Path_311" data-name="Path 311" d="M546.022,152.687c-1.775-1.821-3.56-.937-5.633.184,1.861-2.359,4.406-2.344,5.633-.184" transform="translate(-197.178 -55.128)" fill="#665757"/>
    <path id="Path_312" data-name="Path 312" d="M897.35,454.947a4.784,4.784,0,1,1,4.805-4.822,4.842,4.842,0,0,1-4.805,4.822" transform="translate(-325.642 -162.511)" fill="#fefdfd"/>
    <path id="Path_313" data-name="Path 313" d="M602.812,342.94a4.789,4.789,0,1,1,4.8-4.843,4.909,4.909,0,0,1-4.8,4.843" transform="translate(-218.173 -121.638)" fill="#fefdfd"/>
    <path id="Path_314" data-name="Path 314" d="M675.4,111.53a4.865,4.865,0,0,1,4.79-4.847,4.832,4.832,0,1,1,.031,9.665,4.863,4.863,0,0,1-4.821-4.817" transform="translate(-246.44 -38.927)" fill="#fdfefe"/>
    <path id="Path_315" data-name="Path 315" d="M136.517,186.484a4.857,4.857,0,0,1,4.839-4.8,4.83,4.83,0,0,1-.058,9.659,4.874,4.874,0,0,1-4.781-4.864" transform="translate(-49.813 -66.295)" fill="#fefdfd"/>
    <path id="Path_316" data-name="Path 316" d="M146.091,554.745a4.833,4.833,0,0,1-4.855,4.763,4.85,4.85,0,0,1,.177-9.7,4.813,4.813,0,0,1,4.678,4.934" transform="translate(-49.814 -200.616)" fill="#fdfefd"/>
    <path id="Path_317" data-name="Path 317" d="M306.865,200.861a4.937,4.937,0,0,1-4.849,4.822,4.878,4.878,0,0,1-4.74-4.892,4.8,4.8,0,0,1,4.813-4.8,4.878,4.878,0,0,1,4.776,4.865" transform="translate(-108.471 -71.515)" fill="#fdfefd"/>
    <path id="Path_318" data-name="Path 318" d="M404.833,111.488a4.8,4.8,0,1,1-4.829-4.8,4.864,4.864,0,0,1,4.829,4.8" transform="translate(-144.215 -38.927)" fill="#fefdfd"/>
  </g>
</svg>
